<?xml version="1.0" standalone="no"?>
<!DOCTYPE svg PUBLIC "-//W3C//DTD SVG 20010904//EN"
 "http://www.w3.org/TR/2001/REC-SVG-20010904/DTD/svg10.dtd">
<svg version="1.0" xmlns="http://www.w3.org/2000/svg"
 width="379.000000pt" height="380.000000pt" viewBox="0 0 379.000000 380.000000"
 preserveAspectRatio="xMidYMid meet">

<g transform="translate(0.000000,380.000000) scale(0.100000,-0.100000)"
fill="#000000" stroke="none">
<path d="M1670 3783 c-19 -2 -89 -15 -156 -28 -657 -132 -1214 -635 -1422
-1286 -166 -517 -94 -1080 197 -1549 260 -419 681 -731 1146 -850 183 -47 247
-55 460 -55 213 0 277 8 461 55 779 200 1370 914 1423 1718 33 489 -138 978
-474 1365 -209 240 -524 450 -825 550 -192 64 -297 80 -550 82 -124 2 -241 1
-260 -2z m495 -308 c119 -21 300 -82 416 -140 397 -199 669 -508 813 -924 62
-178 78 -280 78 -491 1 -219 -16 -331 -72 -501 -135 -408 -427 -751 -795 -934
-181 -90 -450 -174 -476 -148 -4 4 -17 125 -28 268 -43 546 -93 1120 -100
1127 -3 4 -26 3 -50 -3 -24 -5 -64 -6 -90 -2 -25 4 -50 8 -56 8 -7 0 -92 -896
-121 -1293 -4 -54 -12 -96 -20 -103 -28 -23 -294 56 -459 138 -336 166 -574
408 -735 746 -115 243 -154 414 -154 692 0 146 4 201 22 292 74 371 279 709
577 950 213 172 515 294 825 333 99 12 313 4 425 -15z"/>
<path d="M1847 3276 c-102 -233 -163 -448 -174 -620 -8 -124 14 -234 68 -343
40 -81 43 -84 68 -76 33 10 159 10 186 1 17 -7 25 1 52 50 57 104 78 192 77
327 0 182 -41 345 -154 613 -75 176 -68 174 -123 48z"/>
<path d="M1818 2130 c-103 -55 -107 -218 -6 -280 41 -25 117 -26 165 -4 80 38
111 159 60 235 -44 66 -143 89 -219 49z"/>
<path d="M1414 1955 c-140 -31 -294 -115 -450 -246 -83 -69 -260 -253 -334
-346 l-42 -53 79 0 c89 0 321 23 403 40 291 60 510 201 600 384 l32 65 -22 43
c-13 24 -28 61 -35 83 l-12 40 -79 2 c-43 1 -106 -4 -140 -12z"/>
<path d="M2167 1963 c-2 -5 -10 -26 -17 -48 -7 -22 -21 -55 -33 -73 -17 -29
-18 -39 -8 -72 17 -57 85 -153 149 -210 69 -62 243 -150 364 -184 48 -14 133
-32 190 -40 114 -17 388 -33 388 -23 0 14 -211 246 -296 327 -232 219 -455
330 -663 330 -38 0 -72 -3 -74 -7z"/>
</g>
</svg>
