<?xml version="1.0" standalone="no"?>
<!DOCTYPE svg PUBLIC "-//W3C//DTD SVG 20010904//EN"
 "http://www.w3.org/TR/2001/REC-SVG-20010904/DTD/svg10.dtd">
<svg version="1.0" xmlns="http://www.w3.org/2000/svg"
 width="488.000000pt" height="522.000000pt" viewBox="0 0 488.000000 522.000000"
 preserveAspectRatio="xMidYMid meet">

<g transform="translate(0.000000,522.000000) scale(0.100000,-0.100000)"
fill="#000000" stroke="none">
<path d="M2382 5187 c-20 -21 -22 -34 -22 -135 0 -127 -3 -132 -82 -132 -68 0
-230 -27 -357 -59 -666 -170 -1188 -548 -1551 -1126 -178 -281 -294 -593 -346
-925 -27 -173 -25 -536 4 -725 84 -541 286 -953 652 -1329 263 -270 550 -462
886 -592 195 -75 501 -146 669 -156 l60 -3 6 355 c6 388 13 444 71 608 64 184
165 340 318 493 120 121 228 203 420 321 450 277 623 414 815 643 49 58 92
102 97 97 17 -17 28 -255 18 -382 -12 -144 -22 -208 -55 -341 -175 -696 -609
-1124 -1298 -1278 l-122 -27 4 -245 c2 -134 5 -246 7 -248 9 -10 322 41 447
73 178 46 300 92 483 181 215 105 433 254 587 403 424 407 664 859 752 1422
26 161 31 505 11 660 -70 531 -316 1041 -690 1428 -388 403 -963 690 -1486
743 -180 18 -164 4 -170 148 -4 106 -8 125 -24 137 -30 22 -79 17 -104 -9z
m-480 -580 c50 -45 98 -94 109 -108 42 -60 6 -139 -63 -139 -29 0 -47 14 -139
108 -59 59 -109 115 -112 124 -17 49 42 114 92 102 13 -3 64 -42 113 -87z
m1245 61 c56 -52 36 -96 -101 -222 -76 -70 -99 -86 -125 -86 -45 0 -81 38 -81
85 0 31 11 47 88 127 128 134 162 149 219 96z m-652 -195 c116 -224 251 -383
556 -658 318 -286 402 -380 484 -543 61 -122 80 -208 80 -362 -1 -121 -4 -143
-29 -215 -88 -254 -283 -414 -631 -520 -66 -20 -237 -65 -380 -100 -143 -36
-288 -72 -321 -82 l-62 -17 -83 38 c-45 21 -139 53 -208 70 l-126 33 -3 351
-2 351 321 281 c176 155 325 280 329 278 8 -3 526 -459 602 -530 l28 -26 0
-162 0 -161 51 28 c78 43 171 134 207 201 98 183 48 414 -133 611 -22 24 -139
133 -260 241 -245 219 -348 324 -425 430 -29 39 -54 70 -55 68 -2 -2 -23 -30
-47 -63 -75 -101 -182 -209 -432 -433 -131 -119 -262 -244 -291 -279 -103
-125 -154 -248 -162 -393 -4 -73 -12 -112 -34 -166 -35 -88 -52 -192 -47 -295
2 -44 1 -79 -2 -79 -8 0 -66 91 -94 147 -14 28 -38 91 -53 140 -24 79 -27 104
-27 243 -1 150 1 158 32 250 74 213 197 372 476 613 200 172 335 306 430 423
82 103 194 281 223 354 9 22 20 40 24 40 4 0 33 -48 64 -107z m-1038 -336
c113 -114 124 -138 82 -191 -16 -20 -29 -26 -61 -26 -39 0 -47 6 -142 99 -89
89 -100 103 -100 135 0 49 36 86 82 86 31 0 47 -12 139 -103z m2157 72 c44
-52 37 -71 -76 -185 -89 -91 -106 -104 -136 -104 -18 0 -41 4 -51 10 -24 12
-45 64 -38 93 4 12 51 66 105 120 88 86 103 97 135 97 27 0 41 -7 61 -31z
m-3150 -1475 c9 -8 16 -31 16 -50 0 -32 2 -34 35 -34 22 0 43 -8 56 -21 18
-18 19 -23 6 -42 -10 -16 -26 -23 -56 -25 -40 -3 -41 -4 -41 -41 0 -43 -18
-64 -52 -59 -17 2 -25 13 -33 48 -10 42 -13 45 -49 50 -25 3 -44 13 -53 27
-13 19 -12 24 6 42 13 13 34 21 56 21 32 0 35 3 35 28 0 32 25 72 45 72 7 0
21 -7 29 -16z m3982 8 c6 -4 14 -24 18 -44 8 -42 16 -50 66 -58 27 -4 36 -11
38 -28 5 -34 -15 -52 -59 -52 -37 0 -39 -2 -39 -31 0 -44 -17 -69 -46 -69 -27
0 -36 16 -38 64 -1 29 -4 31 -41 34 -48 4 -65 17 -65 48 0 28 10 35 57 39 41
4 53 17 53 62 0 37 28 54 56 35z m-3315 -465 c134 -89 275 -151 529 -233 458
-148 567 -186 698 -249 137 -66 250 -135 290 -178 l23 -24 -97 -98 c-68 -68
-101 -95 -110 -89 -179 129 -262 166 -731 320 -270 89 -417 143 -498 183
l-115 57 6 -36 c12 -65 72 -254 108 -338 132 -308 375 -560 672 -698 87 -40
96 -47 90 -67 -17 -59 -36 -156 -36 -189 0 -45 -7 -46 -82 -18 -235 87 -500
286 -663 495 -170 218 -299 508 -360 808 -30 152 -49 375 -40 487 11 147 3
145 124 27 58 -56 145 -128 192 -160z"/>
<path d="M2062 2538 l3 -163 135 0 135 0 3 163 2 162 -140 0 -140 0 2 -162z"/>
<path d="M2484 2687 c-2 -7 -3 -80 -2 -162 l3 -150 105 3 c58 2 121 7 140 11
l35 7 3 152 3 152 -141 0 c-106 0 -142 -3 -146 -13z"/>
<path d="M3665 1829 c-72 -57 -188 -133 -368 -242 -218 -132 -305 -196 -418
-308 -146 -146 -258 -331 -284 -472 l-7 -38 38 7 c131 23 341 102 462 173 285
166 501 439 596 752 24 81 43 170 35 168 -2 0 -26 -18 -54 -40z"/>
</g>
</svg>
