<?xml version="1.0" standalone="no"?>
<!DOCTYPE svg PUBLIC "-//W3C//DTD SVG 20010904//EN"
 "http://www.w3.org/TR/2001/REC-SVG-20010904/DTD/svg10.dtd">
<svg version="1.0" xmlns="http://www.w3.org/2000/svg"
 width="499.000000pt" height="490.000000pt" viewBox="0 0 499.000000 490.000000"
 preserveAspectRatio="xMidYMid meet">

<g transform="translate(0.000000,490.000000) scale(0.100000,-0.100000)"
fill="#000000" stroke="none">
<path d="M2441 4826 c-40 -61 -43 -63 -92 -69 -28 -4 -63 -4 -78 -1 -16 3 -80
-4 -142 -15 -488 -92 -953 -335 -1299 -681 -398 -396 -638 -892 -696 -1440 -6
-61 -9 -67 -65 -125 -33 -34 -59 -70 -59 -80 0 -10 25 -44 54 -75 62 -65 59
-55 81 -245 44 -390 169 -725 387 -1042 361 -524 901 -891 1503 -1020 126 -27
139 -28 440 -28 299 0 314 1 435 27 329 71 606 186 875 362 598 393 980 1008
1060 1710 9 76 22 154 30 172 8 19 37 58 64 87 l50 53 -64 71 -65 71 -10 98
c-45 425 -226 851 -511 1204 -94 116 -286 305 -394 387 -272 205 -517 330
-825 419 -52 15 -97 30 -100 34 -15 21 -201 53 -312 54 -64 1 -118 3 -121 6
-2 3 -23 33 -46 68 -23 34 -46 62 -50 62 -5 0 -27 -29 -50 -64z m-96 -158
c-70 -133 -98 -227 -97 -333 0 -107 18 -169 68 -242 30 -44 118 -123 136 -123
3 0 7 90 11 200 5 201 11 230 43 230 11 0 14 -39 14 -215 0 -118 4 -215 8
-215 16 0 86 56 121 95 19 22 46 64 60 95 23 49 26 67 26 165 0 127 -19 195
-91 334 -24 46 -44 84 -44 86 0 6 106 -9 116 -16 15 -12 91 -204 99 -252 4
-20 11 -39 15 -42 5 -3 48 51 96 120 48 69 92 125 97 125 18 0 152 -42 160
-50 5 -4 -44 -78 -108 -165 -64 -86 -119 -163 -122 -170 -3 -9 5 -16 24 -21
252 -56 537 -194 748 -361 347 -274 617 -715 704 -1148 47 -235 51 -497 11
-726 -22 -127 -45 -227 -53 -236 -3 -3 -92 67 -197 156 -106 89 -199 165 -207
168 -14 6 -15 -1 -10 -53 3 -32 11 -127 18 -210 l12 -151 -178 -194 c-98 -107
-181 -194 -185 -194 -4 0 -150 119 -324 265 -174 146 -322 266 -329 268 -7 1
-38 -31 -71 -73 -32 -41 -60 -75 -62 -75 -1 0 -112 90 -246 201 -134 110 -255
210 -270 221 l-28 19 0 -22 c0 -12 14 -125 31 -251 17 -126 28 -239 25 -251
-3 -12 -65 -96 -136 -186 -72 -90 -130 -170 -128 -177 2 -8 155 -173 342 -369
186 -195 428 -451 538 -568 l198 -212 -67 -21 c-38 -11 -80 -24 -94 -27 -24
-6 -44 13 -240 226 -279 303 -877 901 -1304 1303 -508 479 -828 775 -832 770
-8 -8 48 -364 68 -431 40 -136 110 -229 236 -315 119 -82 421 -310 520 -393
123 -104 327 -317 396 -415 31 -45 83 -119 115 -164 31 -44 89 -115 128 -157
39 -42 76 -85 82 -96 24 -47 90 -370 78 -383 -6 -6 -214 27 -291 46 l-70 17
-13 110 c-16 146 -43 247 -90 348 -129 276 -362 503 -952 932 -117 84 -181
137 -192 159 -9 18 -32 97 -52 177 -111 455 -110 764 5 1149 129 435 399 797
792 1064 166 113 390 210 585 256 28 6 52 14 52 17 0 2 -26 37 -58 76 -32 40
-93 118 -135 173 l-76 102 96 27 c78 22 97 25 104 14 13 -25 160 -234 173
-247 10 -10 17 3 34 67 12 45 38 117 58 160 39 85 37 84 126 89 l27 2 -44 -82z"/>
<path d="M2468 3643 c-44 -50 -51 -126 -18 -181 30 -49 49 -51 82 -12 36 44
37 99 5 161 -26 49 -46 58 -69 32z"/>
<path d="M1687 3624 c-12 -12 -8 -129 5 -142 14 -14 106 -16 126 -3 9 5 12 28
10 77 l-3 69 -65 3 c-36 2 -69 0 -73 -4z"/>
<path d="M3137 3623 c-12 -11 -8 -128 5 -141 7 -7 35 -12 63 -12 28 0 56 5 63
12 19 19 16 134 -4 142 -21 8 -119 8 -127 -1z"/>
<path d="M2240 3450 c0 -6 7 -27 16 -48 31 -75 120 -141 191 -142 31 0 31 0
27 43 -8 68 -31 104 -87 132 -52 26 -147 35 -147 15z"/>
<path d="M2631 3448 c-75 -21 -105 -59 -114 -141 -5 -42 -4 -47 15 -47 41 0
99 24 136 55 39 34 88 118 77 135 -8 12 -68 12 -114 -2z"/>
<path d="M1405 3333 c-28 -7 -35 -21 -35 -70 0 -69 4 -73 81 -73 l68 0 7 35
c8 46 -3 102 -22 109 -18 7 -69 6 -99 -1z"/>
<path d="M3466 3327 c-14 -10 -17 -25 -14 -72 l3 -60 40 -7 c22 -4 55 -4 73
-1 l32 5 0 68 c0 62 -2 68 -22 74 -38 10 -93 7 -112 -7z"/>
<path d="M2404 3000 c-32 -13 -64 -59 -64 -92 0 -80 76 -131 143 -97 76 39 77
148 2 184 -37 17 -50 18 -81 5z"/>
<path d="M1074 2987 c-3 -8 -4 -41 -2 -73 l3 -59 70 0 70 0 0 70 0 70 -68 3
c-51 2 -69 -1 -73 -11z"/>
<path d="M3754 2987 c-3 -8 -4 -41 -2 -73 l3 -59 70 0 70 0 0 70 0 70 -68 3
c-51 2 -69 -1 -73 -11z"/>
<path d="M2699 2892 c-64 -32 -124 -63 -133 -71 -9 -7 -57 -85 -106 -172 -50
-87 -98 -167 -108 -179 -9 -11 -100 -65 -202 -119 l-185 -98 1 -35 c1 -22 13
-54 33 -82 17 -26 31 -49 31 -52 0 -2 -17 3 -37 11 -46 19 -94 64 -119 111
-10 19 -21 34 -24 34 -9 -1 -310 -460 -310 -474 0 -12 239 -238 258 -243 4 -1
116 144 249 322 235 314 241 324 223 340 -28 25 -83 13 -192 -43 -8 -4 -44 65
-37 72 6 5 329 168 370 186 26 12 48 39 99 122 36 59 70 108 75 108 6 -1 36
-29 68 -65 63 -70 64 -65 -18 -103 -96 -45 -95 -43 -95 -223 0 -171 5 -189 55
-189 46 0 55 22 55 138 0 65 5 117 13 132 12 26 93 73 108 64 5 -3 9 -110 9
-239 0 -257 2 -265 60 -265 29 0 60 22 60 43 0 7 1 154 3 327 2 173 0 326 -5
339 -5 13 -42 58 -83 101 -41 42 -75 81 -75 87 0 6 21 18 46 28 l46 17 82 -81
c60 -60 88 -81 107 -81 32 0 52 21 52 56 0 38 -197 234 -233 233 -14 0 -77
-26 -141 -57z"/>
<path d="M1305 2578 c-50 -58 -100 -151 -120 -222 -31 -107 -5 -209 70 -274
59 -52 65 -46 65 67 0 75 4 101 15 111 13 11 15 -1 15 -99 0 -85 3 -111 13
-111 30 0 97 63 123 116 36 74 31 161 -15 259 -25 54 -117 195 -127 195 -1 0
-19 -19 -39 -42z"/>
<path d="M3495 2408 c-104 -132 -92 -91 -110 -388 -9 -146 -15 -287 -13 -314
l3 -48 245 208 c135 115 260 221 278 236 18 15 32 31 32 37 0 16 -361 321
-379 320 -9 0 -34 -23 -56 -51z"/>
<path d="M955 2410 c-27 -28 -27 -30 -11 -55 24 -37 43 -41 72 -15 31 30 30
40 -4 73 l-28 27 -29 -30z"/>
<path d="M3942 2410 c-28 -37 -27 -41 3 -70 l25 -24 29 28 30 29 -27 33 c-15
19 -30 34 -33 34 -3 0 -15 -13 -27 -30z"/>
</g>
</svg>
